<svg width="299" height="49" viewBox="0 0 299 49" fill="none" xmlns="http://www.w3.org/2000/svg">
<path d="M42.7381 33.4733C42.7381 35.6568 42.3252 37.536 41.4994 39.1055C40.6736 40.6804 39.6035 42.0311 38.3008 43.1683C36.2421 44.962 33.7472 46.238 30.8103 47.0014C27.8734 47.7648 24.7504 48.1492 21.4413 48.1492C18.58 48.1492 15.7594 47.7915 12.9738 47.0708C10.1881 46.3501 7.69316 45.1169 5.48323 43.3711C3.87812 42.1059 2.54634 40.547 1.49371 38.6891C0.691154 37.2797 0.196826 35.7582 0.00491008 34.1353C-0.0474305 33.6708 0.324769 33.2544 0.830729 33.217L8.93771 32.6298C9.42622 32.5924 9.84495 32.9287 9.89729 33.3772C9.99615 34.21 10.2404 34.9948 10.6417 35.7422C11.1709 36.7245 11.8339 37.568 12.6364 38.262C13.7879 39.2657 15.1837 39.933 16.8121 40.2587C18.4404 40.5844 20.0339 40.7498 21.5925 40.7498C23.4477 40.7498 25.204 40.563 26.8615 40.1946C28.5189 39.8263 29.8449 39.1803 30.851 38.262C31.4558 37.6961 31.9559 37.0929 32.3572 36.4629C32.7585 35.8276 32.9621 34.9467 32.9621 33.8096C32.9621 32.1066 32.3223 30.8307 31.0429 29.9765C29.7635 29.1276 28.2979 28.5671 26.6405 28.3055C24.8318 28.0012 22.8487 27.7823 20.6969 27.6488C18.5393 27.5154 16.5794 27.3232 14.8231 27.0616C12.9679 26.8 11.2232 26.3409 9.59487 25.6842C7.96068 25.0275 6.53586 24.168 5.30294 23.095C4.07003 22.0272 3.09301 20.7353 2.36605 19.2298C1.6391 17.7243 1.27272 16.0106 1.27272 14.0887C1.27272 12.2575 1.69726 10.5758 2.55215 9.04366C3.40705 7.51681 4.53528 6.13944 5.93685 4.91689C7.69316 3.39004 9.94963 2.18884 12.712 1.31331C15.4687 0.437769 18.4288 0 21.5867 0C24.448 0 27.193 0.384382 29.8274 1.14781C32.4619 1.91123 34.6835 3.03769 36.4863 4.52183C38.0914 5.8298 39.3825 7.31928 40.3595 8.97425C41.0516 10.1434 41.511 11.3873 41.7378 12.7113C41.8192 13.1811 41.447 13.6242 40.9295 13.6669L32.8341 14.3396C32.363 14.377 31.9559 14.078 31.8687 13.6509C31.7524 13.0797 31.5489 12.5138 31.2523 11.9586C30.8277 11.1524 30.2869 10.4424 29.6355 9.82844C28.7806 9.04366 27.5768 8.42971 26.024 7.99195C24.4654 7.55418 22.965 7.33529 21.5111 7.33529C20.0048 7.33529 18.4637 7.51147 16.8819 7.85848C15.3 8.21083 13.9566 8.8835 12.8574 9.88716C12.305 10.4103 11.8688 10.9816 11.5431 11.5902C11.2174 12.2041 11.0546 12.9409 11.0546 13.8164C11.0546 15.3433 11.5547 16.5124 12.5608 17.3186C13.5611 18.1247 14.8696 18.6425 16.4748 18.8561C18.1787 19.075 20.0979 19.2725 22.2322 19.4487C24.3607 19.6248 26.309 19.817 28.0653 20.0359C30.0717 20.2975 31.9676 20.7673 33.7472 21.4453C35.5267 22.1233 37.0853 23.0149 38.4113 24.1307C39.7373 25.2464 40.7957 26.5864 41.5692 28.1613C42.3485 29.7362 42.7381 31.5087 42.7381 33.4733Z" fill="#F5F5F5"/>
<path d="M80.8938 15.2312C80.8938 14.3183 80.6903 13.4374 80.289 12.5886C79.8877 11.7397 79.312 10.9923 78.556 10.341C77.8057 9.6897 76.8752 9.17719 75.7703 8.80882C74.6653 8.44046 73.4382 8.2536 72.0832 8.2536H59.2888V22.0753H72.2344C74.991 22.0753 77.1253 21.4881 78.6316 20.3136C80.1436 19.1391 80.8938 17.4467 80.8938 15.2312ZM81.1323 46.6544L73.9558 32.4697C73.1125 30.804 71.2922 29.7363 69.2917 29.7363H59.3644V46.19C59.3644 46.7986 58.8294 47.2897 58.1664 47.2897H50.7805C50.1176 47.2897 49.5825 46.7986 49.5825 46.19V1.95401C49.5825 1.3454 50.1176 0.854248 50.7805 0.854248H72.0832C75.241 0.854248 77.9918 1.25998 80.3239 2.06612C82.656 2.87759 84.5868 3.94532 86.1163 5.27464C87.6458 6.6093 88.774 8.13615 89.5009 9.86053C90.2279 11.5849 90.5943 13.3894 90.5943 15.2632C90.5943 18.4077 89.7045 21.1251 87.9249 23.4153C86.1453 25.7056 83.7726 27.3339 80.8124 28.2949C80.8124 28.2949 82.3361 28.7593 83.4062 30.6332C83.6446 31.0549 83.9994 31.7863 84.3948 32.5551C85.1392 34.0072 85.9592 35.5981 85.9592 35.5981L88.8496 41.209L91.4492 46.2487C91.6993 46.7345 91.3154 47.2897 90.7339 47.2897H82.214C81.7545 47.2897 81.33 47.0442 81.1323 46.6544Z" fill="#F5F5F5"/>
<path d="M140.935 26.6772C140.284 26.5864 139.656 26.9761 139.522 27.5687C137.48 36.3401 127.286 41.951 117.818 39.2123C115.079 38.4649 112.659 37.0768 110.717 35.267C119.359 33.5213 127.53 29.7736 134.398 24.6431C138.225 21.7336 141.9 18.2902 144.238 14.1847C144.32 14.0513 144.703 13.2078 145 12.5618C145.215 12.092 145.145 11.5581 144.814 11.1524L143.819 9.91383C142.04 7.70363 139.853 5.78172 137.37 4.24419C124.25 -3.93461 105.954 0.710008 99.2195 13.8804C95.7883 20.4737 95.9976 27.7556 98.9752 33.911C97.7249 34.0071 96.4745 34.0391 95.23 33.9911C95.0148 33.9804 94.8229 34.1246 94.7996 34.3274L94.6368 35.55C94.6077 35.7528 94.7647 35.945 94.9857 35.9771C96.7595 36.244 98.5507 36.3561 100.348 36.3561C103.529 41.3424 108.658 45.3144 115.195 47.1348C129.92 51.3257 145.489 42.6344 148.437 28.9194C148.577 28.2734 148.088 27.6541 147.384 27.558C145.651 27.3178 142.616 26.9067 140.935 26.6772ZM105.797 22.6038C106.512 15.2845 113.177 9.16108 121.156 8.53112C126.216 8.0453 131.368 9.79638 134.933 13.085C134.712 13.464 132.874 16.5658 127.338 21.9258C122.214 26.8854 115.253 30.1526 108.123 32.192C106.291 29.3518 105.396 25.9992 105.797 22.6038Z" fill="#F5F5F5"/>
<path d="M180.012 11.9049C180.012 13.9712 179.417 15.5409 178.235 16.6323C177.053 17.7175 175.457 18.2632 173.446 18.2632C171.436 18.2632 169.839 17.7175 168.657 16.6323C167.475 15.547 166.88 13.9712 166.88 11.9049V1.45679H169.138V11.9539C169.138 12.6039 169.218 13.2048 169.378 13.7443C169.539 14.29 169.786 14.7499 170.127 15.13C170.467 15.5102 170.908 15.8045 171.456 16.013C172.003 16.2215 172.671 16.3257 173.446 16.3257C174.221 16.3257 174.889 16.2215 175.437 16.013C175.984 15.8045 176.432 15.5102 176.766 15.13C177.106 14.7499 177.354 14.29 177.514 13.7443C177.674 13.1986 177.754 12.6039 177.754 11.9539V1.45679H180.012V11.9049Z" fill="#F5F5F5"/>
<path d="M192.869 17.9506V10.4825C192.869 9.59954 192.655 8.90668 192.221 8.41003C191.787 7.91337 191.066 7.66811 190.051 7.66811C189.423 7.66811 188.875 7.83366 188.401 8.1709C187.927 8.502 187.546 8.94347 187.259 9.48304C187.038 9.91838 186.905 10.415 186.865 10.973C186.824 11.531 186.804 12.0337 186.804 12.4875V17.9568H184.647V6.17816H186.524L186.704 7.94403C186.871 7.60067 187.098 7.30635 187.385 7.04883C187.673 6.79131 187.993 6.57671 188.347 6.39889C188.701 6.22108 189.075 6.08618 189.463 6.00034C189.85 5.9145 190.224 5.87158 190.578 5.87158C192.048 5.87158 193.156 6.25174 193.898 7.01204C194.639 7.77235 195.013 8.8331 195.013 10.2004V17.9506H192.869Z" fill="#F5F5F5"/>
<path d="M199.582 3.47401V1.14404H202.093V3.47401H199.582ZM199.736 17.9505V6.17188H201.94V17.9505H199.736Z" fill="#F5F5F5"/>
<path d="M211.932 17.9505H209.601L204.859 6.17188H207.116L210.817 15.6205L214.39 6.17188H216.568L211.932 17.9505Z" fill="#F5F5F5"/>
<path d="M229.806 12.7143H220.728C220.728 13.26 220.835 13.7935 221.056 14.3331C221.276 14.8665 221.577 15.3141 221.971 15.6697C222.579 16.2277 223.367 16.5097 224.329 16.5097C225.391 16.5097 226.185 16.2522 226.713 15.7433C226.9 15.5716 227.054 15.3938 227.167 15.2099C227.288 15.0259 227.388 14.7745 227.475 14.468H229.579C229.492 15.0566 229.271 15.6084 228.917 16.1173C228.563 16.6324 228.122 17.0493 227.602 17.3743C227.147 17.6563 226.64 17.8709 226.079 18.0242C225.518 18.1775 224.936 18.2572 224.329 18.2572C223.414 18.2572 222.599 18.0978 221.884 17.779C221.163 17.4601 220.561 17.0309 220.074 16.4852C219.533 15.9089 219.132 15.2467 218.872 14.4925C218.611 13.7383 218.478 12.9473 218.478 12.1073C218.478 11.3961 218.551 10.7216 218.705 10.0962C218.858 9.47078 219.112 8.88215 219.466 8.33645C219.92 7.6252 220.561 7.03044 221.39 6.57057C222.218 6.10458 223.193 5.87158 224.309 5.87158C225.137 5.87158 225.878 6.00648 226.526 6.27626C227.174 6.54605 227.742 6.91393 228.209 7.37993C228.73 7.90724 229.138 8.53266 229.425 9.25618C229.712 9.97969 229.846 10.7339 229.832 11.5248L229.806 12.7143ZM227.622 11.0159C227.622 10.5683 227.555 10.133 227.421 9.7099C227.288 9.29296 227.094 8.92507 226.84 8.61849C226.566 8.29352 226.226 8.036 225.798 7.83979C225.377 7.64358 224.876 7.55162 224.302 7.55162C223.727 7.55162 223.22 7.64972 222.779 7.85206C222.338 8.0544 221.978 8.31806 221.69 8.64303C221.403 8.968 221.183 9.33588 221.029 9.74669C220.875 10.1575 220.795 10.5806 220.775 11.0159H227.622Z" fill="#F5F5F5"/>
<path d="M240.653 8.10922C240.466 8.07856 240.265 8.05404 240.058 8.04177C239.845 8.02338 239.651 8.01725 239.464 8.01725C238.956 8.01725 238.495 8.10922 238.081 8.28704C237.667 8.46485 237.313 8.68559 237.026 8.94924C236.772 9.18224 236.565 9.45202 236.405 9.75247C236.245 10.0529 236.124 10.3717 236.051 10.709C235.977 11.0401 235.924 11.3834 235.897 11.7329C235.87 12.0824 235.857 12.4135 235.857 12.7201V17.9564H233.7V6.1778H235.623L235.797 8.25025C236.138 7.5206 236.659 6.98103 237.36 6.63153C238.061 6.28204 238.816 6.11035 239.631 6.11035C239.985 6.11035 240.326 6.13488 240.646 6.1778V8.10922H240.653Z" fill="#F5F5F5"/>
<path d="M253.204 14.529C253.204 15.0379 253.11 15.4916 252.923 15.8902C252.736 16.2887 252.489 16.6321 252.188 16.9264C251.701 17.3924 251.086 17.7296 250.365 17.9381C249.637 18.1466 248.849 18.2508 248.007 18.2508C247.199 18.2508 246.437 18.1527 245.723 17.9626C245.015 17.7664 244.387 17.423 243.846 16.9264C243.458 16.5708 243.151 16.1538 242.931 15.6817C242.71 15.2096 242.604 14.7252 242.604 14.2285H244.761C244.781 14.6332 244.881 14.9827 245.068 15.2893C245.255 15.5897 245.502 15.8534 245.803 16.068C246.09 16.2703 246.444 16.4113 246.865 16.4849C247.286 16.5646 247.7 16.6014 248.107 16.6014C248.548 16.6014 248.962 16.5585 249.363 16.4727C249.757 16.3868 250.124 16.2151 250.465 15.9515C250.652 15.8288 250.806 15.651 250.919 15.418C251.04 15.185 251.1 14.9398 251.1 14.6761C251.1 14.2285 250.933 13.8545 250.592 13.5602C250.251 13.2659 249.757 13.0819 249.096 13.0022C248.962 12.9838 248.775 12.9654 248.541 12.9348C248.308 12.9041 248.054 12.8735 247.78 12.8428C247.513 12.8121 247.232 12.7815 246.958 12.7508C246.678 12.7202 246.431 12.6895 246.21 12.6589C245.249 12.5178 244.48 12.1806 243.913 11.6472C243.345 11.1137 243.064 10.3963 243.064 9.495C243.064 9.0474 243.171 8.61207 243.378 8.20125C243.592 7.79044 243.839 7.4532 244.126 7.18955C244.547 6.78487 245.082 6.46603 245.723 6.23304C246.364 6.00004 247.092 5.88354 247.9 5.88354C248.762 5.88354 249.55 6.00618 250.258 6.25757C250.966 6.50283 251.54 6.87684 251.981 7.3735C252.269 7.6862 252.489 8.01731 252.656 8.37294C252.816 8.72856 252.896 9.15164 252.896 9.6299H250.739C250.719 9.31719 250.639 9.03514 250.498 8.77762C250.352 8.52009 250.191 8.31775 250.004 8.15833C249.497 7.74139 248.795 7.53291 247.9 7.53291C247.646 7.53291 247.413 7.53905 247.192 7.55744C246.972 7.57584 246.711 7.64328 246.404 7.76591C245.997 7.9192 245.683 8.13994 245.456 8.42812C245.228 8.7163 245.115 9.02287 245.115 9.34784C245.115 9.8445 245.269 10.2063 245.569 10.427C245.876 10.6539 246.297 10.801 246.838 10.8807C247.192 10.9298 247.626 10.9788 248.134 11.034C248.642 11.0892 249.243 11.1689 249.937 11.2793C250.852 11.4203 251.621 11.7759 252.255 12.3523C252.89 12.9164 253.204 13.646 253.204 14.529Z" fill="#F5F5F5"/>
<path d="M257.011 3.47401V1.14404H259.522V3.47401H257.011ZM257.158 17.9505V6.17188H259.362V17.9505H257.158Z" fill="#F5F5F5"/>
<path d="M270.977 17.7911C270.69 17.8708 270.336 17.9382 269.922 18.0118C269.508 18.0792 269.007 18.116 268.412 18.116C267.718 18.116 267.143 18.024 266.689 17.834C266.235 17.65 265.874 17.4048 265.614 17.1105C265.353 16.8161 265.166 16.4728 265.059 16.0865C264.953 15.7002 264.892 15.3139 264.892 14.9215V7.87027H262.408V6.17185H264.892V3.16741L267.05 2.70142V6.17185H270.85V7.87027H267.05V14.7069C267.05 15.2833 267.19 15.6941 267.471 15.9455C267.751 16.1969 268.185 16.3195 268.773 16.3195C269.007 16.3195 269.254 16.3072 269.508 16.2827C269.762 16.2582 269.995 16.2336 270.216 16.203C270.47 16.1846 270.723 16.1539 270.977 16.111V17.7911Z" fill="#F5F5F5"/>
<path d="M285.124 17.8342C284.89 17.9445 284.657 18.0181 284.443 18.0549C284.222 18.0917 283.975 18.1101 283.708 18.1101C283.127 18.1101 282.666 17.9384 282.332 17.5889C281.998 17.2394 281.831 16.8163 281.831 16.3197H281.784C281.41 16.9083 280.856 17.3804 280.121 17.7299C279.387 18.0794 278.565 18.2511 277.65 18.2511C276.922 18.2511 276.281 18.1469 275.72 17.9384C275.165 17.7299 274.704 17.454 274.337 17.1106C273.976 16.7673 273.696 16.381 273.515 15.9456C273.328 15.5103 273.235 15.0688 273.235 14.6212C273.235 14.2472 273.308 13.8548 273.449 13.4317C273.589 13.0148 273.843 12.6285 274.197 12.279C274.551 11.9295 275.018 11.6291 275.606 11.3838C276.187 11.1386 276.922 10.9853 277.797 10.9423L281.704 10.7339V9.87546C281.704 9.58114 281.664 9.26843 281.591 8.94346C281.517 8.61849 281.33 8.33032 281.043 8.08506C280.823 7.90111 280.549 7.75395 280.221 7.64359C279.894 7.53322 279.467 7.47803 278.939 7.47803C278.345 7.47803 277.864 7.54549 277.496 7.67425C277.122 7.80914 276.828 7.97469 276.608 8.17703C276.187 8.56331 275.973 9.03544 275.973 9.59954H273.869C273.889 9.05384 273.99 8.58784 274.183 8.18929C274.377 7.79074 274.644 7.44125 274.985 7.12854C275.426 6.7116 275.993 6.39276 276.695 6.18429C277.396 5.97581 278.144 5.87158 278.939 5.87158C280.188 5.87158 281.183 6.08618 281.911 6.50925C282.646 6.93846 283.16 7.47803 283.474 8.12797C283.728 8.65528 283.862 9.26231 283.862 9.9429V15.6452C283.862 15.9579 283.922 16.1664 284.049 16.2706C284.176 16.381 284.349 16.4362 284.57 16.4362C284.67 16.4362 284.79 16.4178 284.924 16.3871C284.99 16.3871 285.057 16.381 285.124 16.3626V17.8342ZM281.704 12.2729L278.258 12.4568C277.937 12.4752 277.61 12.5243 277.269 12.6101C276.929 12.696 276.628 12.8186 276.354 12.9841C276.087 13.1497 275.867 13.3582 275.693 13.6218C275.526 13.8855 275.439 14.2043 275.439 14.5783C275.439 15.1056 275.633 15.5778 276.02 15.9886C276.408 16.3994 277.062 16.6078 277.971 16.6078C278.458 16.6078 278.939 16.5281 279.4 16.3749C279.867 16.2216 280.268 15.9824 280.602 15.6513C280.99 15.2957 281.27 14.8849 281.437 14.4189C281.604 13.9529 281.691 13.4746 281.691 12.978V12.2729H281.704Z" fill="#F5F5F5"/>
<path d="M298.282 14.529C298.282 15.0379 298.189 15.4916 298.002 15.8902C297.815 16.2887 297.568 16.6321 297.267 16.9264C296.779 17.3924 296.165 17.7296 295.444 17.9381C294.715 18.1466 293.927 18.2508 293.086 18.2508C292.278 18.2508 291.516 18.1527 290.801 17.9626C290.093 17.7664 289.466 17.423 288.924 16.9264C288.537 16.5708 288.23 16.1538 288.009 15.6817C287.789 15.2096 287.682 14.7252 287.682 14.2285H289.84C289.86 14.6332 289.96 14.9827 290.147 15.2893C290.334 15.5897 290.581 15.8534 290.882 16.068C291.169 16.2703 291.523 16.4113 291.944 16.4849C292.364 16.5646 292.778 16.6014 293.186 16.6014C293.627 16.6014 294.041 16.5585 294.442 16.4727C294.836 16.3868 295.203 16.2151 295.544 15.9515C295.731 15.8288 295.884 15.651 295.998 15.418C296.118 15.185 296.178 14.9398 296.178 14.6761C296.178 14.2285 296.011 13.8545 295.671 13.5602C295.33 13.2659 294.836 13.0819 294.174 13.0022C294.041 12.9838 293.854 12.9654 293.62 12.9348C293.386 12.9041 293.132 12.8735 292.859 12.8428C292.591 12.8121 292.311 12.7815 292.037 12.7508C291.757 12.7202 291.509 12.6895 291.289 12.6589C290.327 12.5178 289.559 12.1806 288.991 11.6472C288.424 11.1137 288.143 10.3963 288.143 9.495C288.143 9.0474 288.25 8.61207 288.457 8.20125C288.671 7.79044 288.918 7.4532 289.205 7.18955C289.626 6.78487 290.16 6.46603 290.801 6.23304C291.443 6.00004 292.171 5.88354 292.979 5.88354C293.84 5.88354 294.629 6.00618 295.337 6.25757C296.045 6.50283 296.619 6.87684 297.06 7.3735C297.347 7.6862 297.568 8.01731 297.735 8.37294C297.895 8.72856 297.975 9.15164 297.975 9.6299H295.818C295.798 9.31719 295.717 9.03514 295.577 8.77762C295.43 8.52009 295.27 8.31775 295.083 8.15833C294.575 7.74139 293.874 7.53291 292.979 7.53291C292.725 7.53291 292.491 7.53905 292.271 7.55744C292.05 7.57584 291.79 7.64328 291.483 7.76591C291.075 7.9192 290.761 8.13994 290.534 8.42812C290.307 8.7163 290.194 9.02287 290.194 9.34784C290.194 9.8445 290.347 10.2063 290.648 10.427C290.955 10.6539 291.376 10.801 291.917 10.8807C292.271 10.9298 292.705 10.9788 293.213 11.034C293.72 11.0892 294.321 11.1689 295.016 11.2793C295.931 11.4203 296.699 11.7759 297.334 12.3523C297.968 12.9164 298.282 13.646 298.282 14.529Z" fill="#F5F5F5"/>
<path d="M167.388 47.0446V30.5447H169.692V47.0446H167.388Z" fill="#F5F5F5"/>
<path d="M183.058 47.0446V39.5765C183.058 38.6935 182.844 38.0007 182.41 37.504C181.976 37.0074 181.254 36.7621 180.239 36.7621C179.611 36.7621 179.063 36.9277 178.589 37.2649C178.115 37.596 177.734 38.0375 177.447 38.577C177.227 39.0124 177.093 39.509 177.053 40.067C177.013 40.625 176.993 41.1277 176.993 41.5815V47.0508H174.835V35.2722H176.712L176.893 37.038C177.06 36.6947 177.287 36.4003 177.574 36.1428C177.861 35.8853 178.182 35.6707 178.536 35.4929C178.89 35.3151 179.264 35.1802 179.651 35.0943C180.039 35.0085 180.413 34.9656 180.767 34.9656C182.236 34.9656 183.345 35.3457 184.086 36.106C184.828 36.8663 185.202 37.9271 185.202 39.2944V47.0446H183.058Z" fill="#F5F5F5"/>
<path d="M198.393 47.0445L198.24 45.5055C197.866 46.0941 197.318 46.5478 196.59 46.8667C195.862 47.1855 195.134 47.3449 194.413 47.3449C193.618 47.3449 192.923 47.2346 192.322 47.0077C191.721 46.7808 191.213 46.4681 190.786 46.0635C190.178 45.4871 189.717 44.7758 189.403 43.9236C189.089 43.0713 188.936 42.1577 188.936 41.1766C188.936 40.1527 189.103 39.2023 189.43 38.3255C189.757 37.4487 190.245 36.7252 190.886 36.1488C191.307 35.7932 191.814 35.505 192.395 35.2904C192.977 35.0758 193.651 34.9654 194.413 34.9654C194.767 34.9654 195.127 35.0022 195.488 35.0819C195.849 35.1616 196.203 35.2659 196.543 35.4069C196.884 35.5479 197.191 35.7196 197.472 35.9281C197.752 36.1365 197.973 36.3757 198.146 36.6393V30.238H200.304V47.0445H198.393ZM198.267 41.1582C198.267 40.4163 198.166 39.7112 197.959 39.049C197.759 38.3929 197.385 37.8411 196.844 37.4058C196.59 37.1912 196.296 37.0072 195.969 36.8601C195.642 36.7129 195.241 36.6393 194.767 36.6393C194.059 36.6393 193.464 36.7681 192.99 37.0317C192.516 37.2954 192.142 37.6449 191.874 38.0802C191.601 38.5156 191.414 39 191.307 39.5334C191.2 40.0668 191.14 40.6064 191.14 41.1521C191.14 41.6978 191.193 42.2374 191.307 42.7708C191.414 43.3043 191.607 43.7887 191.874 44.224C192.142 44.6593 192.516 45.0088 192.99 45.2725C193.464 45.5361 194.052 45.671 194.767 45.671C195.241 45.671 195.642 45.5975 195.969 45.4503C196.296 45.3031 196.59 45.1192 196.844 44.9046C197.385 44.4693 197.759 43.9236 197.959 43.2614C198.166 42.6053 198.267 41.9002 198.267 41.1582Z" fill="#F5F5F5"/>
<path d="M215.686 41.1584C215.686 42.0904 215.56 42.9672 215.306 43.7888C215.052 44.6104 214.571 45.3401 213.863 45.9778C213.389 46.3947 212.828 46.7319 212.18 46.9772C211.532 47.2225 210.797 47.3512 209.989 47.3512C209.181 47.3512 208.446 47.2286 207.798 46.9772C207.15 46.7319 206.583 46.3947 206.115 45.9778C205.407 45.3401 204.926 44.6104 204.672 43.7888C204.418 42.9672 204.292 42.0904 204.292 41.1584C204.292 40.2264 204.418 39.3496 204.672 38.528C204.926 37.7064 205.407 36.9767 206.115 36.339C206.589 35.9221 207.15 35.5849 207.798 35.3396C208.446 35.0943 209.181 34.9656 209.989 34.9656C210.797 34.9656 211.532 35.0882 212.18 35.3396C212.828 35.5849 213.395 35.9221 213.863 36.339C214.571 36.9767 215.052 37.7064 215.306 38.528C215.56 39.3496 215.686 40.2264 215.686 41.1584ZM213.476 41.1584C213.476 40.4594 213.389 39.7849 213.222 39.135C213.055 38.4851 212.741 37.9394 212.287 37.504C212.013 37.2588 211.692 37.0564 211.311 36.897C210.931 36.7437 210.49 36.664 209.982 36.664C209.475 36.664 209.034 36.7437 208.653 36.897C208.272 37.0503 207.945 37.2526 207.678 37.504C207.224 37.9394 206.91 38.4789 206.743 39.135C206.576 39.7849 206.489 40.4594 206.489 41.1584C206.489 41.8574 206.576 42.5319 206.743 43.1818C206.91 43.8317 207.224 44.3774 207.678 44.8128C207.945 45.058 208.272 45.2604 208.653 45.4198C209.034 45.5731 209.475 45.6528 209.982 45.6528C210.49 45.6528 210.931 45.5731 211.311 45.4198C211.692 45.2665 212.019 45.0642 212.287 44.8128C212.741 44.3774 213.055 43.8379 213.222 43.1818C213.395 42.5319 213.476 41.8574 213.476 41.1584Z" fill="#F5F5F5"/>
<path d="M227.876 47.0446V39.5765C227.876 38.6935 227.662 38.0007 227.228 37.504C226.794 37.0074 226.072 36.7621 225.057 36.7621C224.429 36.7621 223.881 36.9277 223.407 37.2649C222.933 37.596 222.552 38.0375 222.265 38.577C222.045 39.0124 221.911 39.509 221.871 40.067C221.831 40.625 221.811 41.1277 221.811 41.5815V47.0508H219.653V35.2722H221.53L221.711 37.038C221.878 36.6947 222.105 36.4003 222.392 36.1428C222.679 35.8853 223 35.6707 223.354 35.4929C223.708 35.3151 224.082 35.1802 224.469 35.0943C224.857 35.0085 225.231 34.9656 225.585 34.9656C227.054 34.9656 228.163 35.3457 228.904 36.106C229.646 36.8663 230.02 37.9271 230.02 39.2944V47.0446H227.876Z" fill="#F5F5F5"/>
<path d="M245.068 41.8083H235.991C235.991 42.354 236.098 42.8875 236.318 43.4271C236.538 43.9605 236.839 44.4081 237.233 44.7637C237.841 45.3217 238.629 45.6037 239.591 45.6037C240.653 45.6037 241.448 45.3462 241.975 44.8373C242.162 44.6656 242.316 44.4878 242.43 44.3039C242.55 44.1199 242.65 43.8685 242.737 43.5619H244.841C244.754 44.1506 244.534 44.7024 244.18 45.2113C243.826 45.7264 243.385 46.1433 242.864 46.4683C242.41 46.7503 241.902 46.9649 241.341 47.1182C240.78 47.2715 240.199 47.3512 239.591 47.3512C238.676 47.3512 237.861 47.1918 237.146 46.873C236.425 46.5541 235.824 46.1249 235.336 45.5792C234.795 45.0028 234.394 44.3406 234.134 43.5865C233.873 42.8323 233.74 42.0413 233.74 41.2013C233.74 40.4901 233.813 39.8156 233.967 39.1902C234.12 38.5648 234.374 37.9761 234.728 37.4304C235.182 36.7192 235.824 36.1244 236.652 35.6646C237.48 35.1986 238.455 34.9656 239.571 34.9656C240.399 34.9656 241.14 35.1005 241.788 35.3703C242.436 35.64 243.004 36.0079 243.472 36.4739C243.993 37.0012 244.4 37.6267 244.687 38.3502C244.974 39.0737 245.108 39.8279 245.095 40.6188L245.068 41.8083ZM242.884 40.1099C242.884 39.6623 242.817 39.227 242.683 38.8039C242.55 38.387 242.356 38.0191 242.102 37.7125C241.828 37.3875 241.488 37.13 241.06 36.9338C240.639 36.7376 240.139 36.6456 239.564 36.6456C238.99 36.6456 238.482 36.7437 238.041 36.946C237.6 37.1484 237.24 37.412 236.953 37.737C236.665 38.062 236.445 38.4299 236.291 38.8407C236.138 39.2515 236.057 39.6746 236.037 40.1099H242.884Z" fill="#F5F5F5"/>
<path d="M258.48 43.623C258.48 44.1319 258.387 44.5856 258.2 44.9842C258.013 45.3827 257.766 45.7261 257.465 46.0204C256.978 46.4864 256.363 46.8236 255.642 47.0321C254.914 47.2406 254.126 47.3448 253.284 47.3448C252.476 47.3448 251.714 47.2467 251 47.0566C250.292 46.8604 249.664 46.517 249.123 46.0204C248.735 45.6648 248.428 45.2478 248.208 44.7757C247.987 44.3036 247.88 43.8192 247.88 43.3225H250.038C250.058 43.7272 250.158 44.0767 250.345 44.3833C250.532 44.6837 250.779 44.9474 251.08 45.162C251.367 45.3643 251.721 45.5053 252.142 45.5789C252.563 45.6586 252.977 45.6954 253.384 45.6954C253.825 45.6954 254.239 45.6525 254.64 45.5667C255.034 45.4808 255.401 45.3091 255.742 45.0455C255.929 44.9228 256.083 44.745 256.196 44.512C256.316 44.279 256.376 44.0338 256.376 43.7701C256.376 43.3225 256.21 42.9485 255.869 42.6542C255.528 42.3599 255.034 42.1759 254.373 42.0962C254.239 42.0778 254.052 42.0594 253.818 42.0288C253.585 41.9981 253.331 41.9675 253.057 41.9368C252.79 41.9061 252.509 41.8755 252.235 41.8448C251.955 41.8142 251.708 41.7835 251.487 41.7529C250.525 41.6118 249.757 41.2746 249.19 40.7412C248.622 40.2077 248.341 39.4903 248.341 38.589C248.341 38.1414 248.448 37.7061 248.655 37.2952C248.869 36.8844 249.116 36.5472 249.403 36.2835C249.824 35.8789 250.358 35.56 251 35.327C251.641 35.094 252.369 34.9775 253.177 34.9775C254.039 34.9775 254.827 35.1002 255.535 35.3516C256.243 35.5968 256.817 35.9708 257.258 36.4675C257.545 36.7802 257.766 37.1113 257.933 37.4669C258.093 37.8226 258.173 38.2456 258.173 38.7239H256.016C255.996 38.4112 255.916 38.1291 255.775 37.8716C255.628 37.6141 255.468 37.4117 255.281 37.2523C254.773 36.8354 254.072 36.6269 253.177 36.6269C252.923 36.6269 252.689 36.633 252.469 36.6514C252.249 36.6698 251.988 36.7373 251.681 36.8599C251.273 37.0132 250.96 37.2339 250.732 37.5221C250.505 37.8103 250.392 38.1169 250.392 38.4418C250.392 38.9385 250.545 39.3003 250.846 39.521C251.153 39.7479 251.574 39.895 252.115 39.9747C252.469 40.0238 252.903 40.0728 253.411 40.128C253.918 40.1832 254.52 40.2629 255.214 40.3733C256.129 40.5143 256.897 40.8699 257.532 41.4463C258.16 42.0104 258.48 42.74 258.48 43.623Z" fill="#F5F5F5"/>
<path d="M262.281 32.568V30.238H264.793V32.568H262.281ZM262.435 47.0445V35.2659H264.639V47.0445H262.435Z" fill="#F5F5F5"/>
<path d="M280.382 46.9281C280.148 47.0385 279.914 47.1121 279.701 47.1489C279.48 47.1857 279.233 47.2041 278.966 47.2041C278.385 47.2041 277.924 47.0324 277.59 46.6829C277.256 46.3334 277.089 45.9103 277.089 45.4137H277.042C276.668 46.0023 276.114 46.4744 275.379 46.8239C274.644 47.1734 273.823 47.3451 272.908 47.3451C272.18 47.3451 271.538 47.2409 270.977 47.0324C270.423 46.8239 269.962 46.548 269.595 46.2046C269.234 45.8613 268.954 45.475 268.773 45.0396C268.586 44.6043 268.493 44.1628 268.493 43.7152C268.493 43.3412 268.566 42.9488 268.706 42.5257C268.847 42.1088 269.1 41.7225 269.455 41.373C269.809 41.0235 270.276 40.7231 270.864 40.4778C271.445 40.2325 272.18 40.0793 273.055 40.0363L276.962 39.8279V38.9694C276.962 38.6751 276.922 38.3624 276.849 38.0375C276.775 37.7125 276.588 37.4243 276.301 37.1791C276.08 36.9951 275.807 36.8479 275.479 36.7376C275.152 36.6272 274.724 36.572 274.197 36.572C273.602 36.572 273.121 36.6395 272.754 36.7682C272.38 36.9031 272.086 37.0687 271.866 37.271C271.445 37.6573 271.231 38.1294 271.231 38.6935H269.127C269.147 38.1478 269.247 37.6818 269.441 37.2833C269.635 36.8847 269.902 36.5352 270.243 36.2225C270.683 35.8056 271.251 35.4868 271.953 35.2783C272.654 35.0698 273.402 34.9656 274.197 34.9656C275.446 34.9656 276.441 35.1802 277.169 35.6033C277.904 36.0325 278.418 36.572 278.732 37.222C278.986 37.7493 279.119 38.3563 279.119 39.0369V44.7392C279.119 45.0519 279.18 45.2604 279.307 45.3646C279.433 45.475 279.607 45.5302 279.827 45.5302C279.928 45.5302 280.048 45.5118 280.182 45.4811C280.248 45.4811 280.315 45.475 280.382 45.4566V46.9281ZM276.962 41.3669L273.516 41.5508C273.195 41.5692 272.868 41.6183 272.527 41.7041C272.186 41.7899 271.886 41.9126 271.612 42.0781C271.345 42.2437 271.124 42.4521 270.951 42.7158C270.784 42.9795 270.697 43.2983 270.697 43.6723C270.697 44.1996 270.891 44.6718 271.278 45.0826C271.665 45.4934 272.32 45.7018 273.228 45.7018C273.716 45.7018 274.197 45.6221 274.658 45.4689C275.125 45.3156 275.526 45.0764 275.86 44.7453C276.247 44.3897 276.528 43.9789 276.695 43.5129C276.862 43.0469 276.949 42.5686 276.949 42.072V41.3669H276.962Z" fill="#F5F5F5"/>
</svg>
